<svg width="320" height="240" viewBox="0 0 320 240" fill="none" xmlns="http://www.w3.org/2000/svg">
  <rect width="320" height="240" rx="22" fill="#1f1f1f"/>
  <rect x="10" y="10" width="300" height="220" rx="18" fill="#252525" stroke="#3a3a3a"/>
  <line x1="32" y1="205" x2="288" y2="205" stroke="#3a3a3a" stroke-width="4" stroke-linecap="round" opacity="0.9"/>
<path d="M83 158 C119 121 157 193 197 154 C227 126 249 139 280 132" fill="none" stroke="#6bbfb8" stroke-width="5" stroke-linecap="round" stroke-linejoin="round" opacity="0.42"/>
<path d="M84 139 C118 176 152 109 194 144 C226 173 250 158 280 166" fill="none" stroke="#6bbfb8" stroke-width="5" stroke-linecap="round" stroke-linejoin="round" opacity="0.42"/>
<circle cx="137" cy="75" r="11" fill="#252525" stroke="#6bbfb8" stroke-width="5"/>
<line x1="150" y1="94" x2="171" y2="145" stroke="#6bbfb8" stroke-width="7" stroke-linecap="round" opacity="1"/>
<line x1="150" y1="94" x2="118" y2="116" stroke="#6bbfb8" stroke-width="7" stroke-linecap="round" opacity="1"/>
<line x1="118" y1="116" x2="84" y2="139" stroke="#6bbfb8" stroke-width="7" stroke-linecap="round" opacity="1"/>
<line x1="150" y1="94" x2="185" y2="132" stroke="#6bbfb8" stroke-width="7" stroke-linecap="round" opacity="1"/>
<line x1="185" y1="132" x2="231" y2="158" stroke="#6bbfb8" stroke-width="7" stroke-linecap="round" opacity="1"/>
<line x1="171" y1="145" x2="139" y2="172" stroke="#6bbfb8" stroke-width="7" stroke-linecap="round" opacity="1"/>
<line x1="139" y1="172" x2="104" y2="204" stroke="#6bbfb8" stroke-width="7" stroke-linecap="round" opacity="1"/>
<line x1="171" y1="145" x2="202" y2="172" stroke="#6bbfb8" stroke-width="7" stroke-linecap="round" opacity="1"/>
<line x1="202" y1="172" x2="242" y2="204" stroke="#6bbfb8" stroke-width="7" stroke-linecap="round" opacity="1"/>
</svg>
