<svg width="320" height="240" viewBox="0 0 320 240" fill="none" xmlns="http://www.w3.org/2000/svg">
  <title>curl-to-press end</title>
  <rect width="320" height="240" rx="22" fill="#1f1f1f"/>
  <rect x="10" y="10" width="300" height="220" rx="18" fill="#252525" stroke="#3a3a3a"/>
  <line x1="32" y1="205" x2="288" y2="205" stroke="#3a3a3a" stroke-width="4" stroke-linecap="round" opacity="0.9"/>
  <circle cx="160" cy="72" r="11" fill="#252525" stroke="#6bbfb8" stroke-width="5"/>
  <line x1="160" y1="86" x2="160" y2="136" stroke="#6bbfb8" stroke-width="7" stroke-linecap="round" opacity="1"/>
  <line x1="160" y1="136" x2="140" y2="190" stroke="#6bbfb8" stroke-width="7" stroke-linecap="round" opacity="1"/>
  <line x1="160" y1="136" x2="180" y2="190" stroke="#6bbfb8" stroke-width="7" stroke-linecap="round" opacity="1"/>
  <line x1="160" y1="98" x2="132" y2="48" stroke="#6bbfb8" stroke-width="7" stroke-linecap="round" opacity="1"/>
  <line x1="160" y1="98" x2="188" y2="48" stroke="#6bbfb8" stroke-width="7" stroke-linecap="round" opacity="1"/>
  <line x1="120" y1="48" x2="144" y2="48" stroke="#6bbfb8" stroke-width="3" stroke-linecap="round" opacity="1"/>
  <line x1="120" y1="42" x2="120" y2="54" stroke="#6bbfb8" stroke-width="4" stroke-linecap="round" opacity="1"/>
  <line x1="144" y1="42" x2="144" y2="54" stroke="#6bbfb8" stroke-width="4" stroke-linecap="round" opacity="1"/>
  <line x1="176" y1="48" x2="200" y2="48" stroke="#6bbfb8" stroke-width="3" stroke-linecap="round" opacity="1"/>
  <line x1="176" y1="42" x2="176" y2="54" stroke="#6bbfb8" stroke-width="4" stroke-linecap="round" opacity="1"/>
  <line x1="200" y1="42" x2="200" y2="54" stroke="#6bbfb8" stroke-width="4" stroke-linecap="round" opacity="1"/>
  <path d="M130 156 C118 123 130 99 153 91" fill="none" stroke="#6bbfb8" stroke-width="3" stroke-linecap="round" stroke-linejoin="round" opacity="0.35"/>
  <path d="M190 156 C202 123 190 99 167 91" fill="none" stroke="#6bbfb8" stroke-width="3" stroke-linecap="round" stroke-linejoin="round" opacity="0.35"/>
</svg>
