<svg width="320" height="240" viewBox="0 0 320 240" fill="none" xmlns="http://www.w3.org/2000/svg">
  <title>chest-dips start</title>
  <rect width="320" height="240" rx="22" fill="#1f1f1f"/>
  <rect x="10" y="10" width="300" height="220" rx="18" fill="#252525" stroke="#3a3a3a"/>
  <line x1="32" y1="205" x2="288" y2="205" stroke="#3a3a3a" stroke-width="4" stroke-linecap="round" opacity="0.9"/>
  <line x1="102" y1="105" x2="102" y2="175" stroke="#3a3a3a" stroke-width="5" stroke-linecap="round" opacity="1"/>
  <line x1="218" y1="105" x2="218" y2="175" stroke="#3a3a3a" stroke-width="5" stroke-linecap="round" opacity="1"/>
  <line x1="82" y1="108" x2="127" y2="108" stroke="#3a3a3a" stroke-width="5" stroke-linecap="round" opacity="1"/>
  <line x1="193" y1="108" x2="238" y2="108" stroke="#3a3a3a" stroke-width="5" stroke-linecap="round" opacity="1"/>
  <circle cx="158" cy="80" r="11" fill="#252525" stroke="#6bbfb8" stroke-width="5"/>
  <line x1="158" y1="94" x2="145" y2="140" stroke="#6bbfb8" stroke-width="7" stroke-linecap="round" opacity="1"/>
  <line x1="154" y1="98" x2="106" y2="111" stroke="#6bbfb8" stroke-width="7" stroke-linecap="round" opacity="1"/>
  <line x1="162" y1="98" x2="214" y2="111" stroke="#6bbfb8" stroke-width="7" stroke-linecap="round" opacity="1"/>
  <line x1="145" y1="140" x2="172" y2="160" stroke="#6bbfb8" stroke-width="7" stroke-linecap="round" opacity="1"/>
  <line x1="172" y1="160" x2="198" y2="181" stroke="#6bbfb8" stroke-width="7" stroke-linecap="round" opacity="1"/>
  <path d="M127 86 C121 112 122 135 132 154" fill="none" stroke="#6bbfb8" stroke-width="3" stroke-linecap="round" stroke-linejoin="round" opacity="0.35"/>
</svg>
