<svg width="320" height="240" viewBox="0 0 320 240" fill="none" xmlns="http://www.w3.org/2000/svg">
  <rect width="320" height="240" rx="22" fill="#1f1f1f"/>
  <rect x="10" y="10" width="300" height="220" rx="18" fill="#252525" stroke="#3a3a3a"/>
  <line x1="32" y1="205" x2="288" y2="205" stroke="#3a3a3a" stroke-width="4" stroke-linecap="round" opacity="0.9"/>
<rect x="61" y="166" width="178" height="9" rx="4" fill="#303030" stroke="#3a3a3a" stroke-width="3" opacity="1"/>
<g transform="translate(59 98) rotate(0) scale(0.45)">
    <line x1="-22" y1="0" x2="22" y2="0" stroke="#d9f7f4" stroke-width="5" stroke-linecap="round" opacity="0.72"/>
    <rect x="-31" y="-10" width="9" height="20" rx="2" fill="#6bbfb8" stroke="#6bbfb8" stroke-width="2" opacity="0.82"/>
    <rect x="22" y="-10" width="9" height="20" rx="2" fill="#6bbfb8" stroke="#6bbfb8" stroke-width="2" opacity="0.82"/>
  </g>
<g transform="translate(238 101) rotate(0) scale(0.45)">
    <line x1="-22" y1="0" x2="22" y2="0" stroke="#d9f7f4" stroke-width="5" stroke-linecap="round" opacity="0.72"/>
    <rect x="-31" y="-10" width="9" height="20" rx="2" fill="#6bbfb8" stroke="#6bbfb8" stroke-width="2" opacity="0.82"/>
    <rect x="22" y="-10" width="9" height="20" rx="2" fill="#6bbfb8" stroke="#6bbfb8" stroke-width="2" opacity="0.82"/>
  </g>
<path d="M61 98 C101 63 201 63 239 101" fill="none" stroke="#6bbfb8" stroke-width="4" stroke-linecap="round" stroke-linejoin="round" opacity="0.42"/>
<circle cx="82" cy="155" r="11" fill="#252525" stroke="#6bbfb8" stroke-width="5"/>
<line x1="102" y1="155" x2="174" y2="160" stroke="#6bbfb8" stroke-width="7" stroke-linecap="round" opacity="1"/>
<line x1="102" y1="155" x2="87" y2="117" stroke="#6bbfb8" stroke-width="7" stroke-linecap="round" opacity="1"/>
<line x1="87" y1="117" x2="59" y2="98" stroke="#6bbfb8" stroke-width="7" stroke-linecap="round" opacity="1"/>
<line x1="102" y1="155" x2="208" y2="119" stroke="#6bbfb8" stroke-width="7" stroke-linecap="round" opacity="1"/>
<line x1="208" y1="119" x2="238" y2="101" stroke="#6bbfb8" stroke-width="7" stroke-linecap="round" opacity="1"/>
<line x1="174" y1="160" x2="214" y2="167" stroke="#6bbfb8" stroke-width="7" stroke-linecap="round" opacity="1"/>
<line x1="214" y1="167" x2="250" y2="197" stroke="#6bbfb8" stroke-width="7" stroke-linecap="round" opacity="1"/>
<line x1="174" y1="160" x2="222" y2="178" stroke="#6bbfb8" stroke-width="7" stroke-linecap="round" opacity="1"/>
<line x1="222" y1="178" x2="266" y2="205" stroke="#6bbfb8" stroke-width="7" stroke-linecap="round" opacity="1"/><line x1="96" y1="102" x2="220" y2="102" stroke="#d9f7f4" stroke-width="5" stroke-linecap="round" opacity="0.72"/><rect x="83" y="89" width="9" height="26" rx="2" fill="#6bbfb8" stroke="#6bbfb8" stroke-width="2" opacity="0.8"/><rect x="224" y="89" width="9" height="26" rx="2" fill="#6bbfb8" stroke="#6bbfb8" stroke-width="2" opacity="0.8"/>
</svg>
