<svg width="320" height="240" viewBox="0 0 320 240" fill="none" xmlns="http://www.w3.org/2000/svg">
  <title>sprint end</title>
  <rect width="320" height="240" rx="22" fill="#1f1f1f"/>
  <rect x="10" y="10" width="300" height="220" rx="18" fill="#252525" stroke="#3a3a3a"/>
  <line x1="32" y1="205" x2="288" y2="205" stroke="#3a3a3a" stroke-width="4" stroke-linecap="round" opacity="0.9"/>
  <circle cx="142" cy="76" r="11" fill="#252525" stroke="#6bbfb8" stroke-width="5"/>
  <line x1="152" y1="88" x2="188" y2="123" stroke="#6bbfb8" stroke-width="7" stroke-linecap="round" opacity="1"/>
  <line x1="163" y1="98" x2="117" y2="114" stroke="#6bbfb8" stroke-width="7" stroke-linecap="round" opacity="1"/>
  <line x1="164" y1="99" x2="203" y2="90" stroke="#6bbfb8" stroke-width="7" stroke-linecap="round" opacity="1"/>
  <line x1="188" y1="123" x2="145" y2="159" stroke="#6bbfb8" stroke-width="7" stroke-linecap="round" opacity="1"/>
  <line x1="145" y1="159" x2="120" y2="198" stroke="#6bbfb8" stroke-width="7" stroke-linecap="round" opacity="1"/>
  <line x1="188" y1="123" x2="238" y2="151" stroke="#6bbfb8" stroke-width="7" stroke-linecap="round" opacity="1"/>
  <line x1="238" y1="151" x2="266" y2="194" stroke="#6bbfb8" stroke-width="7" stroke-linecap="round" opacity="1"/>
  <line x1="70" y1="202" x2="108" y2="202" stroke="#3a3a3a" stroke-width="4" stroke-linecap="round" opacity="1"/>
  <line x1="79" y1="184" x2="79" y2="202" stroke="#3a3a3a" stroke-width="4" stroke-linecap="round" opacity="1"/>
  <path d="M96 178 C135 139 188 124 248 133" fill="none" stroke="#6bbfb8" stroke-width="3" stroke-linecap="round" stroke-linejoin="round" opacity="0.34"/>
</svg>
