<svg width="320" height="240" viewBox="0 0 320 240" fill="none" xmlns="http://www.w3.org/2000/svg">
  <title>sprint start</title>
  <rect width="320" height="240" rx="22" fill="#1f1f1f"/>
  <rect x="10" y="10" width="300" height="220" rx="18" fill="#252525" stroke="#3a3a3a"/>
  <line x1="32" y1="205" x2="288" y2="205" stroke="#3a3a3a" stroke-width="4" stroke-linecap="round" opacity="0.9"/>
  <circle cx="121" cy="91" r="11" fill="#252525" stroke="#6bbfb8" stroke-width="5"/>
  <line x1="132" y1="101" x2="176" y2="132" stroke="#6bbfb8" stroke-width="7" stroke-linecap="round" opacity="1"/>
  <line x1="141" y1="112" x2="105" y2="150" stroke="#6bbfb8" stroke-width="7" stroke-linecap="round" opacity="1"/>
  <line x1="142" y1="113" x2="200" y2="100" stroke="#6bbfb8" stroke-width="7" stroke-linecap="round" opacity="1"/>
  <line x1="176" y1="132" x2="130" y2="164" stroke="#6bbfb8" stroke-width="7" stroke-linecap="round" opacity="1"/>
  <line x1="130" y1="164" x2="108" y2="199" stroke="#6bbfb8" stroke-width="7" stroke-linecap="round" opacity="1"/>
  <line x1="176" y1="132" x2="221" y2="157" stroke="#6bbfb8" stroke-width="7" stroke-linecap="round" opacity="1"/>
  <line x1="221" y1="157" x2="254" y2="198" stroke="#6bbfb8" stroke-width="7" stroke-linecap="round" opacity="1"/>
  <line x1="70" y1="202" x2="108" y2="202" stroke="#3a3a3a" stroke-width="4" stroke-linecap="round" opacity="1"/>
  <line x1="79" y1="184" x2="79" y2="202" stroke="#3a3a3a" stroke-width="4" stroke-linecap="round" opacity="1"/>
  <path d="M82 182 C126 150 178 136 238 145" fill="none" stroke="#6bbfb8" stroke-width="3" stroke-linecap="round" stroke-linejoin="round" opacity="0.34"/>
</svg>
