<svg width="320" height="240" viewBox="0 0 320 240" fill="none" xmlns="http://www.w3.org/2000/svg">
  <rect width="320" height="240" rx="22" fill="#1f1f1f"/>
  <rect x="10" y="10" width="300" height="220" rx="18" fill="#252525" stroke="#3a3a3a"/>
  <line x1="32" y1="205" x2="288" y2="205" stroke="#3a3a3a" stroke-width="4" stroke-linecap="round" opacity="0.9"/>
<rect x="100" y="118" width="100" height="16" rx="3" fill="#303030" stroke="#3a3a3a" stroke-width="3" opacity="1"/>
<g transform="translate(105 84) rotate(0) scale(0.5)">
    <line x1="-22" y1="0" x2="22" y2="0" stroke="#d9f7f4" stroke-width="5" stroke-linecap="round" opacity="0.72"/>
    <rect x="-31" y="-10" width="9" height="20" rx="2" fill="#6bbfb8" stroke="#6bbfb8" stroke-width="2" opacity="0.82"/>
    <rect x="22" y="-10" width="9" height="20" rx="2" fill="#6bbfb8" stroke="#6bbfb8" stroke-width="2" opacity="0.82"/>
  </g>
<g transform="translate(198 84) rotate(0) scale(0.5)">
    <line x1="-22" y1="0" x2="22" y2="0" stroke="#d9f7f4" stroke-width="5" stroke-linecap="round" opacity="0.72"/>
    <rect x="-31" y="-10" width="9" height="20" rx="2" fill="#6bbfb8" stroke="#6bbfb8" stroke-width="2" opacity="0.82"/>
    <rect x="22" y="-10" width="9" height="20" rx="2" fill="#6bbfb8" stroke="#6bbfb8" stroke-width="2" opacity="0.82"/>
  </g>
<path d="M99 149 C105 119 112 98 124 84" fill="none" stroke="#6bbfb8" stroke-width="4" stroke-linecap="round" stroke-linejoin="round" opacity="0.42"/>
<circle cx="151" cy="64" r="11" fill="#252525" stroke="#6bbfb8" stroke-width="5"/>
<line x1="151" y1="82" x2="150" y2="138" stroke="#6bbfb8" stroke-width="7" stroke-linecap="round" opacity="1"/>
<line x1="151" y1="82" x2="126" y2="118" stroke="#6bbfb8" stroke-width="7" stroke-linecap="round" opacity="1"/>
<line x1="126" y1="118" x2="105" y2="84" stroke="#6bbfb8" stroke-width="7" stroke-linecap="round" opacity="1"/>
<line x1="151" y1="82" x2="176" y2="118" stroke="#6bbfb8" stroke-width="7" stroke-linecap="round" opacity="1"/>
<line x1="176" y1="118" x2="198" y2="84" stroke="#6bbfb8" stroke-width="7" stroke-linecap="round" opacity="1"/>
<line x1="150" y1="138" x2="132" y2="168" stroke="#6bbfb8" stroke-width="7" stroke-linecap="round" opacity="1"/>
<line x1="132" y1="168" x2="100" y2="204" stroke="#6bbfb8" stroke-width="7" stroke-linecap="round" opacity="1"/>
<line x1="150" y1="138" x2="184" y2="168" stroke="#6bbfb8" stroke-width="7" stroke-linecap="round" opacity="1"/>
<line x1="184" y1="168" x2="218" y2="204" stroke="#6bbfb8" stroke-width="7" stroke-linecap="round" opacity="1"/>
</svg>
