<svg width="320" height="240" viewBox="0 0 320 240" fill="none" xmlns="http://www.w3.org/2000/svg">
  <rect width="320" height="240" rx="22" fill="#1f1f1f"/>
  <rect x="10" y="10" width="300" height="220" rx="18" fill="#252525" stroke="#3a3a3a"/>
  <line x1="32" y1="205" x2="288" y2="205" stroke="#3a3a3a" stroke-width="4" stroke-linecap="round" opacity="0.9"/>
<g transform="translate(116 164) rotate(-6) scale(0.55)">
    <line x1="-22" y1="0" x2="22" y2="0" stroke="#d9f7f4" stroke-width="5" stroke-linecap="round" opacity="0.72"/>
    <rect x="-31" y="-10" width="9" height="20" rx="2" fill="#6bbfb8" stroke="#6bbfb8" stroke-width="2" opacity="0.82"/>
    <rect x="22" y="-10" width="9" height="20" rx="2" fill="#6bbfb8" stroke="#6bbfb8" stroke-width="2" opacity="0.82"/>
  </g>
<g transform="translate(205 164) rotate(6) scale(0.55)">
    <line x1="-22" y1="0" x2="22" y2="0" stroke="#d9f7f4" stroke-width="5" stroke-linecap="round" opacity="0.72"/>
    <rect x="-31" y="-10" width="9" height="20" rx="2" fill="#6bbfb8" stroke="#6bbfb8" stroke-width="2" opacity="0.82"/>
    <rect x="22" y="-10" width="9" height="20" rx="2" fill="#6bbfb8" stroke="#6bbfb8" stroke-width="2" opacity="0.82"/>
  </g>
<path d="M202 108 C205 129 207 146 206 163" fill="none" stroke="#6bbfb8" stroke-width="4" stroke-linecap="round" stroke-linejoin="round" opacity="0.42"/>
<circle cx="113" cy="86" r="11" fill="#252525" stroke="#6bbfb8" stroke-width="5"/>
<line x1="128" y1="100" x2="202" y2="130" stroke="#6bbfb8" stroke-width="7" stroke-linecap="round" opacity="1"/>
<line x1="128" y1="100" x2="116" y2="140" stroke="#6bbfb8" stroke-width="7" stroke-linecap="round" opacity="1"/>
<line x1="116" y1="140" x2="112" y2="164" stroke="#6bbfb8" stroke-width="7" stroke-linecap="round" opacity="1"/>
<line x1="128" y1="100" x2="181" y2="140" stroke="#6bbfb8" stroke-width="7" stroke-linecap="round" opacity="1"/>
<line x1="181" y1="140" x2="206" y2="164" stroke="#6bbfb8" stroke-width="7" stroke-linecap="round" opacity="1"/>
<line x1="202" y1="130" x2="184" y2="170" stroke="#6bbfb8" stroke-width="7" stroke-linecap="round" opacity="1"/>
<line x1="184" y1="170" x2="153" y2="200" stroke="#6bbfb8" stroke-width="7" stroke-linecap="round" opacity="1"/>
<line x1="202" y1="130" x2="226" y2="167" stroke="#6bbfb8" stroke-width="7" stroke-linecap="round" opacity="1"/>
<line x1="226" y1="167" x2="258" y2="199" stroke="#6bbfb8" stroke-width="7" stroke-linecap="round" opacity="1"/>
</svg>
