<svg width="320" height="240" viewBox="0 0 320 240" fill="none" xmlns="http://www.w3.org/2000/svg">
  <rect width="320" height="240" rx="22" fill="#1f1f1f"/>
  <rect x="10" y="10" width="300" height="220" rx="18" fill="#252525" stroke="#3a3a3a"/>
  <line x1="32" y1="205" x2="288" y2="205" stroke="#3a3a3a" stroke-width="4" stroke-linecap="round" opacity="0.9"/>
<path d="M89 168 C116 135 178 135 226 169" fill="none" stroke="#6bbfb8" stroke-width="4" stroke-linecap="round" stroke-linejoin="round" opacity="0.42"/>
<circle cx="152" cy="92" r="11" fill="#252525" stroke="#6bbfb8" stroke-width="5"/>
<line x1="152" y1="110" x2="152" y2="152" stroke="#6bbfb8" stroke-width="7" stroke-linecap="round" opacity="1"/>
<line x1="152" y1="110" x2="124" y2="130" stroke="#6bbfb8" stroke-width="7" stroke-linecap="round" opacity="1"/>
<line x1="124" y1="130" x2="101" y2="150" stroke="#6bbfb8" stroke-width="7" stroke-linecap="round" opacity="1"/>
<line x1="152" y1="110" x2="180" y2="130" stroke="#6bbfb8" stroke-width="7" stroke-linecap="round" opacity="1"/>
<line x1="180" y1="130" x2="204" y2="150" stroke="#6bbfb8" stroke-width="7" stroke-linecap="round" opacity="1"/>
<line x1="152" y1="152" x2="104" y2="178" stroke="#6bbfb8" stroke-width="7" stroke-linecap="round" opacity="1"/>
<line x1="104" y1="178" x2="76" y2="204" stroke="#6bbfb8" stroke-width="7" stroke-linecap="round" opacity="1"/>
<line x1="152" y1="152" x2="210" y2="185" stroke="#6bbfb8" stroke-width="7" stroke-linecap="round" opacity="1"/>
<line x1="210" y1="185" x2="252" y2="204" stroke="#6bbfb8" stroke-width="7" stroke-linecap="round" opacity="1"/>
</svg>
