<svg width="320" height="240" viewBox="0 0 320 240" fill="none" xmlns="http://www.w3.org/2000/svg">
  <rect width="320" height="240" rx="22" fill="#1f1f1f"/>
  <rect x="10" y="10" width="300" height="220" rx="18" fill="#252525" stroke="#3a3a3a"/>
  <line x1="32" y1="205" x2="288" y2="205" stroke="#3a3a3a" stroke-width="4" stroke-linecap="round" opacity="0.9"/>
<line x1="78" y1="48" x2="242" y2="48" stroke="#d9f7f4" stroke-width="5" stroke-linecap="round" opacity="0.7"/>
<rect x="126" y="177" width="68" height="10" rx="4" fill="#303030" stroke="#3a3a3a" stroke-width="3" opacity="1"/>
<circle cx="160" cy="88" r="11" fill="#252525" stroke="#6bbfb8" stroke-width="5"/>
<line x1="160" y1="106" x2="160" y2="168" stroke="#6bbfb8" stroke-width="7" stroke-linecap="round" opacity="1"/>
<line x1="160" y1="106" x2="120" y2="76" stroke="#6bbfb8" stroke-width="7" stroke-linecap="round" opacity="1"/>
<line x1="120" y1="76" x2="94" y2="48" stroke="#6bbfb8" stroke-width="7" stroke-linecap="round" opacity="1"/>
<line x1="160" y1="106" x2="200" y2="76" stroke="#6bbfb8" stroke-width="7" stroke-linecap="round" opacity="1"/>
<line x1="200" y1="76" x2="226" y2="48" stroke="#6bbfb8" stroke-width="7" stroke-linecap="round" opacity="1"/>
<line x1="160" y1="168" x2="140" y2="192" stroke="#6bbfb8" stroke-width="7" stroke-linecap="round" opacity="1"/>
<line x1="140" y1="192" x2="120" y2="205" stroke="#6bbfb8" stroke-width="7" stroke-linecap="round" opacity="1"/>
<line x1="160" y1="168" x2="180" y2="192" stroke="#6bbfb8" stroke-width="7" stroke-linecap="round" opacity="1"/>
<line x1="180" y1="192" x2="200" y2="205" stroke="#6bbfb8" stroke-width="7" stroke-linecap="round" opacity="1"/>
</svg>
