<svg width="320" height="240" viewBox="0 0 320 240" fill="none" xmlns="http://www.w3.org/2000/svg">
  <title>reverse-fly end</title>
  <rect width="320" height="240" rx="22" fill="#1f1f1f"/>
  <rect x="10" y="10" width="300" height="220" rx="18" fill="#252525" stroke="#3a3a3a"/>
  <line x1="32" y1="205" x2="288" y2="205" stroke="#3a3a3a" stroke-width="4" stroke-linecap="round" opacity="0.9"/>
  <circle cx="110" cy="91" r="11" fill="#252525" stroke="#6bbfb8" stroke-width="5"/>
  <line x1="123" y1="101" x2="170" y2="126" stroke="#6bbfb8" stroke-width="7" stroke-linecap="round" opacity="1"/>
  <line x1="170" y1="126" x2="144" y2="188" stroke="#6bbfb8" stroke-width="7" stroke-linecap="round" opacity="1"/>
  <line x1="170" y1="126" x2="198" y2="188" stroke="#6bbfb8" stroke-width="7" stroke-linecap="round" opacity="1"/>
  <line x1="150" y1="120" x2="92" y2="116" stroke="#6bbfb8" stroke-width="7" stroke-linecap="round" opacity="1"/>
  <line x1="168" y1="130" x2="230" y2="118" stroke="#6bbfb8" stroke-width="7" stroke-linecap="round" opacity="1"/>
  <line x1="80" y1="116" x2="104" y2="116" stroke="#6bbfb8" stroke-width="3" stroke-linecap="round" opacity="1"/>
  <line x1="80" y1="110" x2="80" y2="122" stroke="#6bbfb8" stroke-width="4" stroke-linecap="round" opacity="1"/>
  <line x1="104" y1="110" x2="104" y2="122" stroke="#6bbfb8" stroke-width="4" stroke-linecap="round" opacity="1"/>
  <line x1="218" y1="118" x2="242" y2="118" stroke="#6bbfb8" stroke-width="3" stroke-linecap="round" opacity="1"/>
  <line x1="218" y1="112" x2="218" y2="124" stroke="#6bbfb8" stroke-width="4" stroke-linecap="round" opacity="1"/>
  <line x1="242" y1="112" x2="242" y2="124" stroke="#6bbfb8" stroke-width="4" stroke-linecap="round" opacity="1"/>
  <path d="M145 160 C118 149 100 135 91 117" fill="none" stroke="#6bbfb8" stroke-width="3" stroke-linecap="round" stroke-linejoin="round" opacity="0.38"/>
  <path d="M179 160 C205 148 222 133 232 117" fill="none" stroke="#6bbfb8" stroke-width="3" stroke-linecap="round" stroke-linejoin="round" opacity="0.38"/>
</svg>
