<svg width="320" height="240" viewBox="0 0 320 240" fill="none" xmlns="http://www.w3.org/2000/svg">
  <rect width="320" height="240" rx="22" fill="#1f1f1f"/>
  <rect x="10" y="10" width="300" height="220" rx="18" fill="#252525" stroke="#3a3a3a"/>
  <line x1="32" y1="205" x2="288" y2="205" stroke="#3a3a3a" stroke-width="4" stroke-linecap="round" opacity="0.9"/>
<line x1="70" y1="38" x2="250" y2="38" stroke="#d9f7f4" stroke-width="7" stroke-linecap="round" opacity="0.75"/>
<path d="M118 68 C147 92 178 92 202 68" fill="none" stroke="#6bbfb8" stroke-width="4" stroke-linecap="round" stroke-linejoin="round" opacity="0.42"/>
<circle cx="160" cy="92" r="11" fill="#252525" stroke="#6bbfb8" stroke-width="5"/>
<line x1="160" y1="110" x2="160" y2="178" stroke="#6bbfb8" stroke-width="7" stroke-linecap="round" opacity="1"/>
<line x1="160" y1="110" x2="112" y2="126" stroke="#6bbfb8" stroke-width="7" stroke-linecap="round" opacity="1"/>
<line x1="112" y1="126" x2="100" y2="38" stroke="#6bbfb8" stroke-width="7" stroke-linecap="round" opacity="1"/>
<line x1="160" y1="110" x2="208" y2="126" stroke="#6bbfb8" stroke-width="7" stroke-linecap="round" opacity="1"/>
<line x1="208" y1="126" x2="220" y2="38" stroke="#6bbfb8" stroke-width="7" stroke-linecap="round" opacity="1"/>
<line x1="160" y1="178" x2="144" y2="218" stroke="#6bbfb8" stroke-width="7" stroke-linecap="round" opacity="1"/>
<line x1="144" y1="218" x2="132" y2="254" stroke="#6bbfb8" stroke-width="7" stroke-linecap="round" opacity="1"/>
<line x1="160" y1="178" x2="176" y2="218" stroke="#6bbfb8" stroke-width="7" stroke-linecap="round" opacity="1"/>
<line x1="176" y1="218" x2="188" y2="254" stroke="#6bbfb8" stroke-width="7" stroke-linecap="round" opacity="1"/>
</svg>
