<svg width="320" height="240" viewBox="0 0 320 240" fill="none" xmlns="http://www.w3.org/2000/svg">
  <rect width="320" height="240" rx="22" fill="#1f1f1f"/>
  <rect x="10" y="10" width="300" height="220" rx="18" fill="#252525" stroke="#3a3a3a"/>
  <line x1="32" y1="205" x2="288" y2="205" stroke="#3a3a3a" stroke-width="4" stroke-linecap="round" opacity="0.9"/>
<g transform="translate(202 104) rotate(0) scale(0.56)">
    <line x1="-22" y1="0" x2="22" y2="0" stroke="#d9f7f4" stroke-width="5" stroke-linecap="round" opacity="0.72"/>
    <rect x="-31" y="-10" width="9" height="20" rx="2" fill="#6bbfb8" stroke="#6bbfb8" stroke-width="2" opacity="0.82"/>
    <rect x="22" y="-10" width="9" height="20" rx="2" fill="#6bbfb8" stroke="#6bbfb8" stroke-width="2" opacity="0.82"/>
  </g>
<rect x="88" y="159" width="124" height="10" rx="4" fill="#303030" stroke="#3a3a3a" stroke-width="3" opacity="1"/>
<path d="M203 160 C196 132 195 114 203 103" fill="none" stroke="#6bbfb8" stroke-width="4" stroke-linecap="round" stroke-linejoin="round" opacity="0.42"/>
<circle cx="143" cy="74" r="11" fill="#252525" stroke="#6bbfb8" stroke-width="5"/>
<line x1="148" y1="92" x2="145" y2="150" stroke="#6bbfb8" stroke-width="7" stroke-linecap="round" opacity="1"/>
<line x1="148" y1="92" x2="116" y2="134" stroke="#6bbfb8" stroke-width="7" stroke-linecap="round" opacity="1"/>
<line x1="116" y1="134" x2="96" y2="160" stroke="#6bbfb8" stroke-width="7" stroke-linecap="round" opacity="1"/>
<line x1="148" y1="92" x2="170" y2="134" stroke="#6bbfb8" stroke-width="7" stroke-linecap="round" opacity="1"/>
<line x1="170" y1="134" x2="202" y2="104" stroke="#6bbfb8" stroke-width="7" stroke-linecap="round" opacity="1"/>
<line x1="145" y1="150" x2="108" y2="174" stroke="#6bbfb8" stroke-width="7" stroke-linecap="round" opacity="1"/>
<line x1="108" y1="174" x2="73" y2="205" stroke="#6bbfb8" stroke-width="7" stroke-linecap="round" opacity="1"/>
<line x1="145" y1="150" x2="196" y2="172" stroke="#6bbfb8" stroke-width="7" stroke-linecap="round" opacity="1"/>
<line x1="196" y1="172" x2="239" y2="205" stroke="#6bbfb8" stroke-width="7" stroke-linecap="round" opacity="1"/>
</svg>
